HIERARCHY
ROOT Hips
{
  OFFSET 0 0 0
  CHANNELS 6 Xposition Yposition Zposition Zrotation Yrotation Xrotation
  JOINT LeftThigh
  {
    OFFSET 8.409438 0 -5.917753
    CHANNELS 3 Zrotation Yrotation Xrotation
    JOINT LeftLeg
    {
      OFFSET 0 0 -42.358652
      CHANNELS 3 Zrotation Yrotation Xrotation
      JOINT LeftFoot
      {
        OFFSET 0 0 -39.357303
        CHANNELS 3 Zrotation Yrotation Xrotation
      }
    }
  }
  JOINT RightThigh
  {
    OFFSET -8.409438 0 -5.917753
    CHANNELS 3 Zrotation Yrotation Xrotation
    JOINT RightLeg
    {
      OFFSET 0 0 -42.358652
      CHANNELS 3 Zrotation Yrotation Xrotation
      JOINT RightFoot
      {
        OFFSET 0 0 -39.357303
        CHANNELS 3 Zrotation Yrotation Xrotation
      }
    }
  }
  JOINT SpineLow
  {
    OFFSET 0 0 4.719101
    CHANNELS 3 Zrotation Yrotation Xrotation
    JOINT SpineMid
    {
      OFFSET 0 0 12.899191
      CHANNELS 3 Zrotation Yrotation Xrotation
      JOINT Chest
      {
        OFFSET 0 0 12.899191
        CHANNELS 3 Zrotation Yrotation Xrotation
        JOINT LeftShoulder
        {
          OFFSET 7.550562 1.41573 9.438202
          CHANNELS 3 Zrotation Yrotation Xrotation
          JOINT LeftArm
          {
            OFFSET 9.155056 0 4.247191
            CHANNELS 3 Zrotation Yrotation Xrotation
            JOINT LeftForearm
            {
              OFFSET 0 0 25.771955
              CHANNELS 3 Zrotation Yrotation Xrotation
              JOINT LeftHand
              {
                OFFSET 0 0 25.197169
                CHANNELS 3 Zrotation Yrotation Xrotation
              }
            }
          }
        }
        JOINT RightShoulder
        {
          OFFSET -7.550562 1.41573 9.438202
          CHANNELS 3 Zrotation Yrotation Xrotation
          JOINT RightArm
          {
            OFFSET -9.155056 0 4.247191
            CHANNELS 3 Zrotation Yrotation Xrotation
            JOINT RightForearm
            {
              OFFSET 0 0 -25.771955
              CHANNELS 3 Zrotation Yrotation Xrotation
              JOINT RightHand
              {
                OFFSET 0 0 -25.197169
                CHANNELS 3 Zrotation Yrotation Xrotation
              }
            }
          }
        }
        JOINT Neck
        {
          OFFSET 0 0 15.101124
          CHANNELS 3 Zrotation Yrotation Xrotation
          JOINT Head
          {
            OFFSET 0 0 11.325843
            CHANNELS 3 Zrotation Yrotation Xrotation
            End Site
            {
              OFFSET 0 0 14.157303
            }
          }
        }
      }
    }
  }
}
MOTION
Frames: 16
Frame Time: 0.0
0.0  101.685394  0.0  0.015057  -31.569236  -103.467218  31.983057  -22.463478  5.929197  -0.465809  8.318825  30.000107  10.967613  4.79204  4.522907  13.813581  6.718026  -3.949023  8.821468  9.067502  18.099894  8.999774  -0.395021  -3.834052  -3.626712  -0.910303  3.216169  -10.016937  -1.995623  8.907261  -10.016938  -1.995623  8.907261  5.65455  38.00004  4.127539  -124.208196  54.068098  -104.775314  -15.917511  -22.191706  117.011696  109.758783  27.364362  -23.667157  9.162708  7.076286  10.855947  71.392385  25.949013  23.297572  -54.790946  14.367769  -80.548371  71.705606  26.530614  21.274963  21.098371  4.303319  -3.36223  15.840552  3.115921  -2.673173  
0.0  101.685394  0.0  -0.143678  -31.576591  -103.118764  32.359368  -22.544166  5.403442  -0.710428  8.421835  30.245524  10.835035  4.82444  4.443685  14.184274  6.556138  -4.133683  9.042208  9.127796  18.06784  9.220904  -0.429013  -3.905973  -3.643179  -0.968921  3.214552  -10.07009  -2.153086  8.912507  -10.07009  -2.153086  8.912506  5.569487  38.088809  4.121572  -124.148878  53.834478  -104.776708  -15.997713  -21.981067  117.078463  109.599727  27.239338  -23.445382  9.237154  7.187104  10.7709  71.548761  26.316622  23.600155  -54.467174  14.234495  -80.671769  71.719452  26.363574  21.220411  21.195217  4.341346  -3.503717  15.914287  3.139085  -2.781417  
0.0  101.685394  0.0  -0.378393  -31.605126  -102.534149  32.484939  -22.486386  4.632799  -0.480364  8.433279  30.730985  10.680218  4.834842  4.360106  14.572491  6.362663  -4.590755  9.077235  9.230352  18.12514  9.093562  -0.449847  -3.980842  -3.65214  -1.03639  3.181841  -10.103132  -2.340422  8.83426  -10.103133  -2.340422  8.83426  5.496901  38.104625  4.102094  -124.006042  53.894855  -104.597193  -16.254359  -21.591197  117.053324  109.427195  27.081516  -23.204396  9.277509  7.198735  10.679191  71.831836  26.764456  24.070683  -54.158455  13.973828  -80.69941  72.079045  26.28428  21.10245  21.202948  4.31254  -3.675154  15.92129  3.111462  -2.909185  
0.0  101.685394  0.0  -0.50618  -31.617224  -102.180979  32.533673  -22.459577  4.161154  -0.312023  8.416267  31.084975  10.495788  4.881219  4.275054  15.139658  6.214611  -4.849839  9.226324  9.255024  18.268021  8.957613  -0.419526  -3.998312  -3.652058  -1.084133  3.178252  -10.109531  -2.470856  8.832074  -10.109531  -2.470856  8.832075  5.397025  38.13184  4.050405  -123.758999  53.801455  -104.41109  -16.335911  -21.163229  117.200785  109.337791  26.908919  -22.950891  9.376421  7.295971  10.592532  72.041984  27.28181  24.534111  -53.98434  13.809094  -80.693089  72.586259  26.200378  20.973787  21.325862  4.390171  -3.801259  16.01458  3.164687  -3.007455  
0.0  101.685394  0.0  -0.61208  -31.407154  -101.809681  32.086122  -22.313716  3.728696  0.414896  8.324739  31.694662  10.197002  4.853512  4.106808  15.462789  6.166814  -5.20504  9.085576  9.331919  18.465086  8.661262  -0.366829  -4.004507  -3.67306  -1.120103  3.177222  -10.171891  -2.566024  8.835708  -10.171892  -2.566024  8.835708  5.122961  38.05288  3.855533  -123.470204  53.864435  -104.129384  -16.471608  -20.86515  117.195614  109.373812  26.795091  -22.724091  9.455769  7.303865  10.430081  72.3373  27.858009  25.141881  -53.932458  13.974265  -80.694046  72.954024  26.065872  20.894306  21.294894  4.413247  -4.027673  15.993152  3.174316  -3.177985  
0.0  101.685394  0.0  -0.589552  -31.386608  -101.619119  31.856176  -22.188652  3.483016  0.805222  8.290333  32.025525  10.07192  4.866217  4.037469  16.143184  6.147188  -5.454755  8.877729  9.358352  18.732913  8.169369  -0.279547  -3.956093  -3.664168  -1.139226  3.193759  -10.150898  -2.616683  8.883576  -10.150898  -2.616683  8.883576  4.943413  38.024859  3.693221  -123.118389  53.839235  -103.880241  -16.494388  -20.727357  117.337872  109.47949  26.805214  -22.546171  9.639542  7.376958  10.253886  72.669373  28.434626  25.814372  -53.962824  14.378193  -80.625619  73.244557  25.898368  20.945836  21.45266  4.562917  -4.178313  16.113049  3.280485  -3.297473  
0.0  101.685394  0.0  -0.535619  -31.144151  -101.355763  31.428304  -21.976511  3.226858  1.303715  8.239128  32.400672  9.768213  4.825455  3.850041  16.456097  6.233948  -5.874287  8.518788  9.437776  19.082737  7.752464  -0.265162  -3.865959  -3.687482  -1.147416  3.185717  -10.215408  -2.637044  8.863761  -10.215408  -2.637044  8.863761  4.831528  37.944611  3.579891  -122.780679  54.003735  -103.525036  -16.632656  -20.773319  117.335743  109.609923  26.922165  -22.380049  9.812153  7.373675  10.11331  73.222224  29.023615  26.611918  -54.213971  14.83948  -80.565398  73.39474  25.654688  21.636719  21.452152  4.611763  -4.39987  16.114592  3.309411  -3.465482  
0.0  101.685394  0.0  -0.378487  -31.139373  -101.300233  31.241007  -21.861589  3.111806  1.481805  8.388826  32.622564  9.855497  4.816876  3.826666  16.947854  6.236269  -6.107865  8.038311  9.690703  19.443957  7.688384  -0.252228  -3.761744  -3.679473  -1.144831  3.199978  -10.193672  -2.628883  8.901957  -10.193672  -2.628883  8.901957  4.780609  37.94686  3.487772  -122.314053  54.068055  -103.168075  -16.713295  -20.865095  117.467953  109.73651  27.098024  -22.151301  10.115645  7.511733  10.070214  73.804567  29.645967  27.334562  -54.318064  15.271975  -80.486243  73.598081  25.223738  21.761479  21.690539  4.795503  -4.513613  16.294849  3.441793  -3.559216  
0.0  101.685394  0.0  -0.264381  -30.968659  -101.261513  30.992666  -21.893905  3.056139  1.310214  8.672572  32.63766  10.118367  4.878977  3.919081  16.646115  6.27293  -6.45788  7.715791  9.911789  19.907375  7.92117  -0.150125  -3.711795  -3.693808  -1.133832  3.214159  -10.231691  -2.594805  8.939337  -10.23169  -2.594805  8.939336  4.889619  37.953445  3.470469  -121.814058  54.259982  -102.599456  -16.836071  -20.963893  117.52892  109.807499  27.274922  -21.853337  10.229613  7.509595  9.986871  74.812358  30.212221  28.243451  -54.528174  15.484136  -80.451592  73.606924  24.819894  23.242683  21.729744  4.840835  -4.714337  16.32608  3.468447  -3.711811  
0.0  101.685394  0.0  -0.05107  -30.729666  -101.299283  30.636517  -21.836274  2.992723  1.343439  8.992352  32.902493  10.277639  4.883314  3.884077  16.34363  6.205308  -6.604138  7.735287  10.322911  20.362797  7.855359  -0.134319  -3.658727  -3.702888  -1.107889  3.229871  -10.253262  -2.52055  8.97828  -10.253262  -2.52055  8.978281  4.824218  37.95548  3.368556  -121.100706  54.379836  -101.934035  -16.926733  -20.970649  117.638517  109.813437  27.414951  -21.476128  10.480119  7.633438  10.01736  75.67995  30.775398  28.971487  -54.647846  15.449149  -80.469358  73.538831  24.789353  22.727384  21.948984  4.987032  -4.821144  16.491874  3.572857  -3.799015  
0.0  101.685394  0.0  0.037429  -30.236879  -101.240783  30.13317  -21.807762  2.838273  1.7262  9.214186  33.451108  10.09234  4.79816  3.654101  15.38637  6.032332  -6.854174  8.094318  10.731781  20.869413  7.757378  -0.100082  -3.619428  -3.761735  -1.085522  3.221514  -10.410357  -2.452973  8.953723  -10.410356  -2.452973  8.953723  5.133433  38.011242  3.486735  -120.376415  54.535376  -101.108437  -16.989578  -21.100759  117.930297  109.562737  27.653691  -21.060508  10.677231  7.665787  10.08385  76.814831  31.243883  29.814543  -55.134018  15.159715  -80.751699  73.523686  24.819253  21.447648  22.129797  5.000076  -4.894167  16.628092  3.578676  -3.855878  
0.0  101.685394  0.0  0.233497  -29.808628  -101.257603  29.713473  -21.697047  2.623013  1.900963  9.431236  33.883364  10.074481  4.789528  3.589269  14.426895  5.952218  -7.111697  8.757734  11.002187  21.496927  7.581477  0.067255  -3.578646  -3.767722  -1.046404  3.23306  -10.421439  -2.343942  8.978968  -10.42144  -2.343942  8.978968  5.018458  37.976121  3.353039  -119.513986  54.640907  -100.18664  -17.011921  -20.949101  118.011736  109.430655  27.586728  -20.564803  10.804667  7.76187  10.074392  77.679429  31.718895  30.481595  -55.158808  14.789441  -80.894035  73.92327  25.110955  20.330412  22.274703  5.082147  -5.019913  16.738128  3.634668  -3.954486  
0.0  101.685394  0.0  0.138042  -29.086317  -101.151932  29.237559  -21.809967  2.256125  2.438069  9.508826  34.650162  9.566669  4.702965  3.29443  13.112451  5.684582  -7.459276  9.098524  11.26072  22.199215  7.668577  0.337251  -3.564616  -3.842039  -1.039204  3.227862  -10.623026  -2.315011  8.965786  -10.623025  -2.315011  8.965785  5.409893  38.060186  3.498283  -118.676559  54.78739  -99.12283  -16.982165  -20.760697  118.092504  109.246599  27.437362  -20.114313  10.993775  7.862007  10.095765  78.663976  32.079539  31.2455  -55.207516  14.55656  -81.028348  74.602529  25.41523  19.195927  22.515683  5.096104  -5.045678  16.919039  3.642345  -3.976486  
0.0  101.685394  0.0  0.33419  -28.335951  -101.205897  29.010552  -21.788424  1.973491  2.43346  9.712153  35.069844  9.224689  4.674771  3.181888  11.924731  5.63398  -7.708027  9.653155  11.485833  22.976495  7.357484  0.605323  -3.548852  -3.865492  -0.98578  3.229348  -10.679425  -2.166289  8.961564  -10.679426  -2.166289  8.961564  5.308554  38.003762  3.415222  -117.847147  54.910111  -98.079475  -16.924125  -20.619403  118.099346  109.027725  27.267295  -19.777754  11.121568  7.984276  10.101286  79.348324  32.46288  31.905503  -55.305684  14.583514  -81.132452  75.555966  25.558403  18.413771  22.594275  5.124456  -5.187956  16.979331  3.657785  -4.08503  
0.0  101.685394  0.0  0.316707  -27.328864  -101.196421  28.810145  -21.980753  1.630229  2.378666  9.925232  35.525806  8.83987  4.627709  3.046096  10.398537  5.439001  -7.987834  10.389366  11.665697  23.896578  6.918985  0.856304  -3.594926  -3.935294  -0.958706  3.226228  -10.865927  -2.083647  8.950322  -10.865926  -2.083647  8.950321  5.761539  38.186028  3.602155  -117.195034  55.18217  -96.813143  -16.852358  -20.504375  118.135137  108.826776  27.167142  -19.53358  11.263321  8.127133  10.101839  80.218541  32.671474  32.717935  -55.558854  14.925371  -81.216116  76.59757  25.504818  18.051172  22.729132  5.126343  -5.287041  17.081311  3.654445  -4.160703  
0.0  101.685394  0.0  0.5353  -26.041083  -101.18374  28.640975  -21.961828  1.277815  1.865579  10.312706  35.741899  8.516884  4.586503  2.932555  8.923643  5.696118  -8.334023  10.40397  11.891436  24.715119  6.931192  1.115061  -3.6158  -3.98836  -0.891979  3.203737  -11.000729  -1.898746  8.878917  -11.000729  -1.898745  8.878917  5.537838  38.148541  3.518302  -116.485107  55.404437  -95.623393  -16.802234  -20.41739  118.06573  108.707566  27.168338  -19.329  11.347737  8.22509  10.103747  80.926674  32.741053  33.45502  -55.930157  15.565292  -81.31599  77.49857  25.238283  18.159105  22.679324  5.102562  -5.476961  17.045574  3.629945  -4.301963  
